# xmcd
# 
# Track frame offsets:
#     182
#     26172
#     44810
#     63602
#     101995
# 
# Disc length: 1892
# 
# Revision: 6
# Processed by: cddbd v1.5.2PL0 Copyright (c) Steve Scherf et al.
# Submitted via: fre:ac v1.0.17
# 
DISCID=4c076205
DTITLE=Marillion - Brief Encounter 
DYEAR=1986
DGENRE=Progressive Rock
TTITLE0=Lady Nina
TTITLE1=Freaks
TTITLE2=Kayleigh [live]
TTITLE3=Fugazi [live]
TTITLE4=Script For a Jesters Tear [live]
EXTD=
EXTT0=
EXTT1=
EXTT2=
EXTT3=
EXTT4=
PLAYORDER=
